<svg width="89" height="84" viewBox="0 0 89 84" fill="none" xmlns="http://www.w3.org/2000/svg">
<path d="M89 42.011C89.0004 45.9689 88.1401 49.853 86.4209 53.6343C84.4381 57.9951 82.0027 62.1838 79.1828 66.0833C79.0595 66.2537 78.9287 66.4144 78.7903 66.5663L82.1807 70.7611C82.4166 71.052 82.4429 71.4593 82.2462 71.7781C82.1567 71.9233 80.016 75.3725 76.5925 78.2928C73.1575 81.2232 69.7839 82.5075 69.6424 82.5606C69.3335 82.6766 68.9851 82.6129 68.7385 82.3955L65.8104 79.8175C65.7388 79.7542 65.68 79.6825 65.6342 79.6054C63.0577 80.9234 58.2639 82.6926 50.3707 83.3305C43.381 83.895 37.6495 83.0144 33.335 80.7136C33.104 80.5905 32.7262 80.4085 32.3181 80.2115C31.6193 79.8742 30.8961 79.5258 30.5013 79.2854C30.1123 79.0485 29.6642 78.7908 29.1675 78.5048C25.311 76.2859 18.1335 72.1561 12.6636 62.7203C8.02829 54.7234 7.54628 50.7442 7.1208 47.2338C6.86801 45.1455 6.64903 43.3427 5.55774 40.9157C2.78232 34.7405 0.511164 33.5071 0.488466 33.4952C0.262374 33.3774 0.0896894 33.1649 0.0282706 32.9183C-0.0340382 32.673 0.00646253 32.4074 0.151553 32.1984C0.601067 31.5516 2.95812 28.3224 5.23596 28.2874C6.34016 28.2701 7.09588 28.6513 7.64687 28.9298C8.21254 29.2153 8.22589 29.2052 8.38745 29.0847C8.56014 28.9555 8.65538 28.7199 8.79646 28.3463C9.13338 27.4546 9.64164 26.1074 12.2568 26.045C14.3397 25.995 15.5027 27.0889 16.3461 27.9792C17.2282 26.2194 19.6351 21.7067 22.7879 18.1273C24.8245 15.8149 27.2056 14.0015 28.8435 12.8867C30.0932 12.0367 30.9174 11.5245 31.4818 11.2318C30.8609 10.0914 30.5943 9.31616 30.3869 8.71361C30.1439 8.00658 30.0095 7.61698 29.4394 7.00513C27.543 4.96993 29.0335 1.64461 29.313 1.24262C29.4705 1.0155 29.7189 0.868071 29.9935 0.837973C30.5035 0.781745 30.8191 1.07173 31.3919 1.59857C32.3443 2.47472 34.3262 4.29699 37.6891 5.17225C40.7026 5.95632 44.2048 5.79251 47.294 5.64818C49.2447 5.55698 51.0868 5.47109 52.5431 5.64596C57.3035 6.21753 67.2101 7.40712 75.3535 14.6798C79.2478 18.1574 82.6494 22.5218 85.034 27.0362C85.0941 27.115 85.1391 27.2027 85.1698 27.2952C85.7479 28.4091 86.2633 29.5306 86.7088 30.6493C88.2367 34.4855 89 38.2815 89 42.011ZM86.7195 46.8734C87.9648 40.2578 86.4729 33.8166 83.6214 28.2024C82.8252 27.8132 80.161 26.6869 76.1328 26.771C71.3857 26.8693 69.8863 27.6879 69.8721 27.6963C69.4515 27.9341 68.9081 27.7991 68.6597 27.386C68.4109 26.9729 68.532 26.4425 68.9414 26.1866C69.1172 26.0769 70.8103 25.1099 76.0954 25.0001C78.7173 24.9461 80.8135 25.3548 82.2893 25.7979C80.0004 21.9874 77.1266 18.6431 74.1652 15.9978C72.6279 14.6249 71.0199 13.48 69.3932 12.5224C68.597 12.8464 66.2964 13.5761 62.4337 13.1798C57.935 12.7185 55.4818 12.5489 55.4578 12.5472C54.9673 12.514 54.6019 12.0841 54.6309 11.6033C54.6643 11.115 55.0893 10.7466 55.5797 10.7807C55.6047 10.7825 58.0832 10.9538 62.6166 11.4182C64.5981 11.621 66.1019 11.4992 67.1376 11.3133C61.3184 8.4825 55.5789 7.79363 52.3303 7.40359C51.0223 7.24686 49.2523 7.32921 47.3786 7.41643C44.1612 7.56695 40.5152 7.7374 37.2396 6.88471C33.7374 5.97314 31.5908 4.17745 30.4488 3.14059C30.2329 3.96538 30.1186 5.12887 30.7457 5.80092C31.5726 6.68859 31.804 7.36108 32.0719 8.13984C32.3247 8.87609 32.6398 9.79165 33.6301 11.385C34.5443 12.8557 35.7424 12.8907 37.6223 12.8261C38.8658 12.7827 40.2754 12.7344 41.5211 13.457C43.6997 14.7205 43.199 16.259 42.8701 17.2764C42.6912 17.8271 42.5354 18.3061 42.652 18.8055C43.0365 18.8525 44.1145 18.5253 44.9156 18.2822C46.7568 17.7235 49.2781 16.9589 51.823 17.3729C53.2445 17.6044 54.1142 18.0285 54.5597 18.7081C55.0804 19.5011 54.8627 20.3453 54.6865 21.0231C54.456 21.9144 54.4769 22.0879 54.8503 22.3438C56.2754 23.3235 57.5763 23.5971 59.3766 23.9761C60.1354 24.1359 60.9957 24.3175 61.9633 24.5751C63.4747 24.9776 64.5318 25.7501 65.105 26.872C65.9764 28.5765 65.7365 31.0314 64.3502 34.5958C63.1819 37.6001 62.913 40.3348 62.8939 42.0995C62.8939 42.1088 62.8939 42.1181 62.8939 42.1274C62.8939 42.8969 63.2553 43.5915 63.8196 44.3557C68.7447 49.4674 71.5237 55.0966 71.776 60.644C71.8246 61.7158 71.7845 62.8447 71.6786 63.9879C71.9932 65.2341 72.9617 65.9854 73.887 66.2914C75.0388 66.6725 76.6553 66.5468 77.7377 65.0491C80.4891 61.2443 82.8652 57.1584 84.799 52.9042C85.3834 51.6186 85.8507 50.3316 86.2103 49.0494C85.7813 48.4841 83.6953 45.868 80.0965 43.4551C79.6719 43.6415 77.1026 44.7311 74.827 44.863C73.692 44.9285 72.2327 44.9666 71.7249 44.7771L72.3515 43.1196C72.3515 43.1196 72.3315 43.1085 72.2781 43.0961C72.2986 43.101 72.8019 43.2063 74.7233 43.0948C75.9178 43.0257 77.2623 42.6264 78.2054 42.2921C73.5149 39.6003 71.8437 39.2045 71.8268 39.201C71.3515 39.0943 71.047 38.6246 71.1485 38.1509C71.2504 37.6767 71.7128 37.3712 72.1904 37.4677C72.384 37.5067 74.2319 37.9361 79.4761 40.9781C83.0326 43.0412 85.4546 45.4394 86.7195 46.8734ZM69.4991 80.6999C70.5161 80.2496 72.9799 79.0414 75.434 76.9478C77.8868 74.8559 79.6755 72.4134 80.388 71.3685L77.7092 68.0547C76.7728 69.2682 75.2502 71.2158 74.1763 72.4585C71.3399 75.7444 68.0745 78.1112 67.9365 78.2104C67.88 78.2511 67.8203 78.2839 67.7594 78.31C67.6232 78.4123 67.4434 78.5411 67.2168 78.6903L69.4991 80.6999ZM69.3162 74.8085C70.3799 73.8752 71.6514 72.6657 72.826 71.3052C73.5447 70.4729 74.4918 69.2882 75.3143 68.2394C74.6609 68.2774 73.9885 68.1915 73.324 67.9715C72.5407 67.7125 71.8606 67.2959 71.3118 66.7633C70.7978 69.8141 69.9718 72.7459 69.3162 74.8085ZM66.7353 76.8574C67.1812 75.6448 69.3175 69.6171 69.8792 64.0711C69.8155 63.7253 69.7871 63.3654 69.7933 62.9993C69.8244 61.2886 69.7025 59.6527 69.4252 58.1417C68.4051 52.5895 65.3498 48.9715 63.5241 46.8101C63.2019 46.4294 62.9144 46.0876 62.6745 45.7834C62.5988 45.6874 62.5236 45.59 62.4493 45.4917C60.9655 43.963 59.2764 42.4785 57.3934 41.0573C49.9488 35.4392 46.3887 35.7885 44.6784 35.9563L44.4296 35.9802C43.9872 36.0196 43.1856 36.2666 42.3378 36.5283C40.1329 37.2083 37.1136 38.1393 34.8856 37.2597C32.8294 36.4477 32.6443 34.3797 32.4654 32.3804C32.3372 30.9464 32.2041 29.4633 31.4337 28.3073C29.7821 25.8303 25.5326 27.0787 23.2828 28.2064C22.3936 28.6522 21.7247 29.2016 21.135 29.6864C20.1242 30.5174 19.0788 31.3763 17.5023 30.9831C16.4952 30.7321 15.8445 30.0379 15.2152 29.3672C14.4167 28.5163 13.7269 27.7809 12.3004 27.815C10.8865 27.8491 10.7365 28.2471 10.4637 28.9687C10.2812 29.4526 10.0538 30.0547 9.45738 30.5001C8.39635 31.2935 7.49821 30.8401 6.84219 30.5094C6.3722 30.2721 5.92803 30.0481 5.26444 30.0583C4.43084 30.0707 3.07962 31.3537 2.14188 32.5092C3.20113 33.4088 5.07974 35.5122 7.18356 40.1923C8.38434 42.8641 8.62912 44.8834 8.88815 47.0213C9.29316 50.3639 9.75202 54.1523 14.2058 61.8358C19.4375 70.8612 26.0858 74.6863 30.0589 76.9717C30.5694 77.2656 31.0305 77.5313 31.4306 77.7743C31.7515 77.9696 32.4965 78.3291 33.0947 78.6173C33.5291 78.8271 33.9305 79.021 34.1767 79.1521C37.8912 81.1337 42.802 81.9754 48.7903 81.6601C44.3036 80.3346 37.6326 77.6278 31.4333 72.2699C21.0406 63.2884 15.3696 45.8383 15.1333 45.0999C14.9855 44.6324 15.2437 44.1356 15.7119 43.9878C16.1801 43.8394 16.6808 44.0967 16.8299 44.5624C16.8837 44.7302 22.0407 60.5926 31.1516 69.591C31.7288 67.8471 32.8855 63.7975 32.238 60.9818C31.9723 59.8236 31.7199 58.8226 31.4969 57.9398C30.945 55.7545 30.5463 54.1757 30.4737 52.3176C30.4728 52.3061 30.4728 52.2937 30.4728 52.2827C30.4728 51.8094 30.8489 51.4167 31.3282 51.3985C31.8196 51.3795 32.2335 51.7598 32.2522 52.2486C32.315 53.8433 32.6621 55.2826 33.1486 57.2128L34.8131 55.4875C35.154 55.1347 35.717 55.1232 36.0717 55.4614C36.4264 55.801 36.438 56.3606 36.098 56.7134L33.6559 59.2445C33.7587 59.6673 33.8655 60.1145 33.9741 60.5886C34.8563 64.4412 32.9639 69.8668 32.5766 70.9121C32.5847 70.9192 32.5931 70.9263 32.6011 70.9333C35.928 73.8084 39.4288 75.8932 42.624 77.3958C41.3328 75.0352 39.6665 71.1808 40.8976 68.7277C41.7147 67.0985 43.1852 65.8588 44.6072 64.659C46.1618 63.3481 47.63 62.1098 48.1819 60.4872C48.3395 60.0241 48.8446 59.7758 49.3106 59.9325C49.7761 60.0892 50.0262 60.5908 49.8682 61.0553C49.1579 63.1427 47.4298 64.6002 45.7585 66.0098C45.1515 66.5216 44.5595 67.021 44.0321 67.535C45.1884 67.9064 47.3759 68.5258 49.1619 68.5457C51.705 68.5741 55.306 67.311 55.3421 67.2986C55.8054 67.1348 56.3145 67.3752 56.4792 67.8356C56.6448 68.296 56.4027 68.8029 55.9394 68.9668C55.7805 69.0234 52.0054 70.3489 49.1424 70.3171C46.6286 70.2892 43.5964 69.2736 42.7962 68.9893C42.6836 69.162 42.5817 69.3378 42.4909 69.5179C41.3836 71.728 44.2248 76.803 45.3081 78.407C45.3491 78.4676 45.3816 78.5314 45.4056 78.5974C50.4718 80.5971 54.2285 81.0833 54.2944 81.0912C54.3029 81.0926 54.3109 81.0934 54.3193 81.0948C62.3763 79.8737 65.9804 77.4321 66.7353 76.8574ZM61.1181 41.7927C61.1648 39.8793 61.4866 37.0498 62.6892 33.9569C63.8477 30.9787 64.1259 28.8643 63.517 27.6742C63.1783 27.0106 62.5192 26.5568 61.5022 26.2854C60.5809 26.0401 59.7811 25.8714 59.0081 25.7089C57.1566 25.3189 55.5575 24.9824 53.8387 23.8008C52.3869 22.8033 52.7474 21.4123 52.9628 20.5818C53.0553 20.2223 53.1613 19.8154 53.0687 19.6759C53.0313 19.6188 52.7812 19.3235 51.535 19.1203C49.4 18.7728 47.2014 19.44 45.435 19.9761C43.7958 20.4733 42.6115 20.8328 41.7271 20.3422C41.4548 20.1908 41.0969 19.888 40.9421 19.3023C40.6728 18.2836 40.9514 17.4233 41.1757 16.7318C41.489 15.7636 41.5656 15.5325 40.6238 14.9861C39.8227 14.5217 38.7839 14.5571 37.6842 14.5952C35.9916 14.6537 33.9123 14.7258 32.4204 12.7592C31.249 13.403 27.2555 15.7436 24.1271 19.2943C20.8354 23.0309 18.319 27.9912 17.7307 29.195C17.7974 29.2242 17.8655 29.2481 17.935 29.2654C18.5834 29.427 18.9706 29.1671 20.0005 28.321C20.6298 27.8035 21.4136 27.1598 22.4808 26.6245C25.927 24.8974 30.7279 24.0452 32.9171 27.328C33.9372 28.8585 34.097 30.6458 34.2385 32.2228C34.409 34.1269 34.5536 35.2227 35.5426 35.6132C37.1866 36.2626 39.8592 35.4383 41.8108 34.8366C42.7922 34.5338 43.64 34.2726 44.2698 34.2159L44.503 34.1938C46.4399 34.0034 50.4691 33.6085 58.4695 39.6459C59.3971 40.3468 60.2805 41.0631 61.1181 41.7927Z" fill="#DFE2EB"/>
</svg>
